<svg width="15" height="18" viewBox="0 0 15 18" fill="none" xmlns="http://www.w3.org/2000/svg">
<path fill-rule="evenodd" clip-rule="evenodd" d="M3.73937 0.991876C6.05274 -0.352298 8.89627 -0.328804 11.1879 1.05342C13.4571 2.46379 14.8362 4.98089 14.8234 7.68859C14.7705 10.3785 13.2917 12.9071 11.4432 14.8617C10.3763 15.995 9.18277 16.9971 7.88701 17.8476C7.75356 17.9247 7.60738 17.9764 7.45569 18C7.30969 17.9938 7.16751 17.9506 7.04198 17.8745C5.06375 16.5966 3.32824 14.9655 1.91894 13.0595C0.739682 11.4685 0.0697084 9.54636 1.23007e-06 7.55409C-0.00152966 4.8412 1.42599 2.33605 3.73937 0.991876ZM5.07655 8.67695C5.46569 9.6363 6.38421 10.2621 7.40325 10.2621C8.07084 10.2669 8.71257 9.99947 9.18547 9.51945C9.65836 9.03943 9.92312 8.38668 9.92075 7.70664C9.92432 6.66863 9.31321 5.73081 8.37277 5.33106C7.43233 4.93131 6.34807 5.14849 5.62624 5.8812C4.90441 6.6139 4.68741 7.7176 5.07655 8.67695Z" fill="#326AFB"/>
</svg>
